<?xml version="1.0" encoding="utf-8"?>
<svg version="1.1" xmlns:xlink="http://www.w3.org/1999/xlink" width="23px" height="21px" xmlns="http://www.w3.org/2000/svg">
  <defs>
    <mask fill="white" id="clip97">
      <path d="M 22.4579124579125 15.6969696969697  C 22.8193041526375 16.026936026936  23 16.4276094276094  23 16.8989898989899  C 23 17.3703703703704  22.8193041526375 17.7710437710438  22.4579124579125 18.1010101010101  L 19.8249158249158 20.5050505050505  C 19.4635241301908 20.8350168350168  19.0246913580247 21  18.5084175084175 21  C 17.9921436588103 21  17.5533108866442 20.8350168350168  17.1919191919192 20.5050505050505  L 11.5 15.3080808080808  L 5.80808080808081 20.5050505050505  C 5.44668911335578 20.8350168350168  5.00785634118968 21  4.49158249158249 21  C 3.97530864197531 21  3.5364758698092 20.8350168350168  3.17508417508418 20.5050505050505  L 0.542087542087542 18.1010101010101  C 0.180695847362514 17.7710437710438  0 17.3703703703704  0 16.8989898989899  C 0 16.4276094276094  0.180695847362514 16.026936026936  0.542087542087542 15.6969696969697  L 6.23400673400673 10.5  L 0.542087542087542 5.3030303030303  C 0.180695847362514 4.97306397306397  0 4.57239057239057  0 4.1010101010101  C 0 3.62962962962963  0.180695847362514 3.22895622895623  0.542087542087542 2.8989898989899  L 3.17508417508418 0.494949494949495  C 3.5364758698092 0.164983164983164  3.97530864197531 0  4.49158249158249 0  C 5.00785634118968 0  5.44668911335578 0.164983164983164  5.80808080808081 0.494949494949495  L 11.5 5.69191919191919  L 17.1919191919192 0.494949494949495  C 17.5533108866442 0.164983164983164  17.9921436588103 0  18.5084175084175 0  C 19.0246913580247 0  19.4635241301908 0.164983164983164  19.8249158249158 0.494949494949495  L 22.4579124579125 2.8989898989899  C 22.8193041526375 3.22895622895623  23 3.62962962962963  23 4.1010101010101  C 23 4.57239057239057  22.8193041526375 4.97306397306397  22.4579124579125 5.3030303030303  L 16.7659932659933 10.5  L 22.4579124579125 15.6969696969697  Z " fill-rule="evenodd" />
    </mask>
  </defs>
  <g transform="matrix(1 0 0 1 -1336 -1009 )">
    <path d="M 22.4579124579125 15.6969696969697  C 22.8193041526375 16.026936026936  23 16.4276094276094  23 16.8989898989899  C 23 17.3703703703704  22.8193041526375 17.7710437710438  22.4579124579125 18.1010101010101  L 19.8249158249158 20.5050505050505  C 19.4635241301908 20.8350168350168  19.0246913580247 21  18.5084175084175 21  C 17.9921436588103 21  17.5533108866442 20.8350168350168  17.1919191919192 20.5050505050505  L 11.5 15.3080808080808  L 5.80808080808081 20.5050505050505  C 5.44668911335578 20.8350168350168  5.00785634118968 21  4.49158249158249 21  C 3.97530864197531 21  3.5364758698092 20.8350168350168  3.17508417508418 20.5050505050505  L 0.542087542087542 18.1010101010101  C 0.180695847362514 17.7710437710438  0 17.3703703703704  0 16.8989898989899  C 0 16.4276094276094  0.180695847362514 16.026936026936  0.542087542087542 15.6969696969697  L 6.23400673400673 10.5  L 0.542087542087542 5.3030303030303  C 0.180695847362514 4.97306397306397  0 4.57239057239057  0 4.1010101010101  C 0 3.62962962962963  0.180695847362514 3.22895622895623  0.542087542087542 2.8989898989899  L 3.17508417508418 0.494949494949495  C 3.5364758698092 0.164983164983164  3.97530864197531 0  4.49158249158249 0  C 5.00785634118968 0  5.44668911335578 0.164983164983164  5.80808080808081 0.494949494949495  L 11.5 5.69191919191919  L 17.1919191919192 0.494949494949495  C 17.5533108866442 0.164983164983164  17.9921436588103 0  18.5084175084175 0  C 19.0246913580247 0  19.4635241301908 0.164983164983164  19.8249158249158 0.494949494949495  L 22.4579124579125 2.8989898989899  C 22.8193041526375 3.22895622895623  23 3.62962962962963  23 4.1010101010101  C 23 4.57239057239057  22.8193041526375 4.97306397306397  22.4579124579125 5.3030303030303  L 16.7659932659933 10.5  L 22.4579124579125 15.6969696969697  Z " fill-rule="nonzero" fill="#ffffff" stroke="none" transform="matrix(1 0 0 1 1336 1009 )" />
    <path d="M 22.4579124579125 15.6969696969697  C 22.8193041526375 16.026936026936  23 16.4276094276094  23 16.8989898989899  C 23 17.3703703703704  22.8193041526375 17.7710437710438  22.4579124579125 18.1010101010101  L 19.8249158249158 20.5050505050505  C 19.4635241301908 20.8350168350168  19.0246913580247 21  18.5084175084175 21  C 17.9921436588103 21  17.5533108866442 20.8350168350168  17.1919191919192 20.5050505050505  L 11.5 15.3080808080808  L 5.80808080808081 20.5050505050505  C 5.44668911335578 20.8350168350168  5.00785634118968 21  4.49158249158249 21  C 3.97530864197531 21  3.5364758698092 20.8350168350168  3.17508417508418 20.5050505050505  L 0.542087542087542 18.1010101010101  C 0.180695847362514 17.7710437710438  0 17.3703703703704  0 16.8989898989899  C 0 16.4276094276094  0.180695847362514 16.026936026936  0.542087542087542 15.6969696969697  L 6.23400673400673 10.5  L 0.542087542087542 5.3030303030303  C 0.180695847362514 4.97306397306397  0 4.57239057239057  0 4.1010101010101  C 0 3.62962962962963  0.180695847362514 3.22895622895623  0.542087542087542 2.8989898989899  L 3.17508417508418 0.494949494949495  C 3.5364758698092 0.164983164983164  3.97530864197531 0  4.49158249158249 0  C 5.00785634118968 0  5.44668911335578 0.164983164983164  5.80808080808081 0.494949494949495  L 11.5 5.69191919191919  L 17.1919191919192 0.494949494949495  C 17.5533108866442 0.164983164983164  17.9921436588103 0  18.5084175084175 0  C 19.0246913580247 0  19.4635241301908 0.164983164983164  19.8249158249158 0.494949494949495  L 22.4579124579125 2.8989898989899  C 22.8193041526375 3.22895622895623  23 3.62962962962963  23 4.1010101010101  C 23 4.57239057239057  22.8193041526375 4.97306397306397  22.4579124579125 5.3030303030303  L 16.7659932659933 10.5  L 22.4579124579125 15.6969696969697  Z " stroke-width="2" stroke="#999999" fill="none" transform="matrix(1 0 0 1 1336 1009 )" mask="url(#clip97)" />
  </g>
</svg>