<?xml version="1.0" encoding="utf-8"?>
<svg version="1.1" xmlns:xlink="http://www.w3.org/1999/xlink" width="40px" height="25px" xmlns="http://www.w3.org/2000/svg">
  <g transform="matrix(1 0 0 1 -1501 -427 )">
    <path d="M 36.9308035714286 22.55859375  C 37.0721726190476 22.4461410984848  37.1428571428571 22.3129734848485  37 22.1590909090909  L 37 8.52272727272727  C 36.6666666666667 8.94886363636363  36.1532738095238 9.33948863636363  35.6026785714286 9.69460227272727  C 31.6145833333333 12.1330492424242  28.4449404761905 14.1335227272727  26.09375 15.6960227272727  C 25.3348214285714 16.2050189393939  24.7172619047619 16.6015625  24.2410714285714 16.8856534090909  C 23.764880952381 17.1697443181818  23.1212797619048 17.4567945075758  22.3102678571429 17.7468039772727  C 21.499255952381 18.0368134469697  20.7366071428571 18.1818181818182  20.0223214285714 18.1818181818182  L 20 18.1818181818182  L 19.9776785714286 18.1818181818182  C 19.2633928571429 18.1818181818182  18.500744047619 18.0368134469697  17.6897321428571 17.7468039772727  C 16.8787202380952 17.4567945075758  16.235119047619 17.1697443181818  15.7589285714286 16.8856534090909  C 15.2827380952381 16.6015625  14.6651785714286 16.2050189393939  13.90625 15.6960227272727  C 11.5550595238095 14.1335227272727  8.38541666666667 12.1330492424242  4.39732142857143 9.69460227272727  C 3.84672619047619 9.33948863636363  3.33333333333333 8.94886363636363  3 8.52272727272727  L 3 22.1590909090909  C 2.85714285714286 22.3129734848485  2.92782738095238 22.4461410984848  3.06919642857143 22.55859375  C 3.21056547619048 22.6710464015152  3.37797619047619 22.7272727272727  3.57142857142857 22.7272727272727  L 36.4285714285714 22.7272727272727  C 36.6220238095238 22.7272727272727  36.7894345238095 22.6710464015152  36.9308035714286 22.55859375  Z M 36.1049107142857 5.83274147727273  C 36.796875 4.97455018939394  37.1428571428571 4.19625946969697  37.1428571428571 3.49786931818182  L 37.1428571428571 3.30255681818182  L 37.1428571428571 3.06285511363636  C 37.1428571428571 3.06285511363636  37.1391369047619 2.98591382575757  37.1316964285714 2.83203125  C 37.124255952381 2.67814867424242  37.1019345238095 2.60416666666666  37.0647321428571 2.61008522727273  C 37.0275297619048 2.61600378787879  36.9866071428571 2.56273674242424  36.9419642857143 2.45028409090909  C 36.8973214285714 2.33783143939394  36.8303571428571 2.29344223484848  36.7410714285714 2.31711647727273  C 36.6517857142857 2.34079071969697  36.5476190476191 2.32599431818182  36.4285714285714 2.27272727272727  L 3.57142857142857 2.27272727272727  C 3.37797619047619 2.27272727272727  3.21056547619048 2.32895359848485  3.06919642857143 2.44140625  C 2.92782738095238 2.55385890151515  2.85714285714286 2.68702651515151  2.85714285714286 2.84090909090909  C 2.85714285714286 4.82954545454546  3.95089285714286 6.51041666666666  6.13839285714286 7.88352272727273  C 9.01041666666667 9.68276515151515  11.9940476190476 11.5589488636364  15.0892857142857 13.5120738636364  C 15.1785714285714 13.571259469697  15.4389880952381 13.7458570075758  15.8705357142857 14.0358664772727  C 16.3020833333333 14.3258759469697  16.6443452380952 14.547821969697  16.8973214285714 14.7017045454545  C 17.1502976190476 14.8555871212121  17.4813988095238 15.042021780303  17.890625 15.2610085227273  C 18.2998511904762 15.4799952651515  18.6755952380952 15.6427556818182  19.0178571428571 15.7492897727273  C 19.360119047619 15.8558238636364  19.6800595238095 15.9090909090909  19.9776785714286 15.9090909090909  L 20 15.9090909090909  L 20.0223214285714 15.9090909090909  C 20.3199404761905 15.9090909090909  20.639880952381 15.8558238636364  20.9821428571429 15.7492897727273  C 21.3244047619048 15.6427556818182  21.7001488095238 15.4799952651515  22.109375 15.2610085227273  C 22.5186011904762 15.042021780303  22.8497023809524 14.8555871212121  23.1026785714286 14.7017045454545  C 23.3556547619048 14.547821969697  23.6979166666667 14.3258759469697  24.1294642857143 14.0358664772727  C 24.5610119047619 13.7458570075758  24.8214285714286 13.571259469697  24.9107142857143 13.5120738636364  C 28.0059523809524 11.5589488636364  30.9895833333333 9.68276515151515  33.8616071428571 7.88352272727273  C 34.6651785714286 7.37452651515151  35.4129464285714 6.69093276515151  36.1049107142857 5.83274147727273  Z M 38.9508928571429 0.834517045454544  C 39.6502976190476 1.39086174242424  40 2.05965909090909  40 2.84090909090909  L 40 22.1590909090909  C 40 22.9403409090909  39.6502976190476 23.6091382575758  38.9508928571429 24.1654829545455  C 38.2514880952381 24.7218276515152  37.4107142857143 25  36.4285714285714 25  L 3.57142857142857 25  C 2.58928571428571 25  1.7485119047619 24.7218276515152  1.04910714285714 24.1654829545455  C 0.349702380952381 23.6091382575758  0 22.9403409090909  0 22.1590909090909  L 0 2.84090909090909  C 0 2.05965909090909  0.349702380952381 1.39086174242424  1.04910714285714 0.834517045454544  C 1.7485119047619 0.278172348484845  2.58928571428571 0  3.57142857142857 0  L 36.4285714285714 0  C 37.4107142857143 0  38.2514880952381 0.278172348484845  38.9508928571429 0.834517045454544  Z " fill-rule="nonzero" fill="#ff9900" stroke="none" transform="matrix(1 0 0 1 1501 427 )" />
  </g>
</svg>