<?xml version="1.0" encoding="utf-8"?>
<svg version="1.1" xmlns:xlink="http://www.w3.org/1999/xlink" width="25px" height="33px" xmlns="http://www.w3.org/2000/svg">
  <g transform="matrix(1 0 0 1 -1302 -383 )">
    <path d="M 6.94444444444444 16  L 22.9166666666667 16  C 23.4953703703704 16.5  23.9872685185185 16.7005208333333  24.3923611111111 17.1015625  C 24.7974537037037 17.5026041666667  25 17.9895833333333  25 18.5625  L 25 30.9375  C 25 31.5104166666667  24.7974537037037 31.9973958333333  24.3923611111111 32.3984375  C 23.9872685185185 32.7994791666667  23.4953703703704 33  22.9166666666667 33  L 2.08333333333333 33  C 1.50462962962963 33  1.01273148148148 32.7994791666667  0.607638888888889 32.3984375  C 0.202546296296296 31.9973958333333  0 31.5104166666667  0 30.9375  L 0 18.5625  C 0 17.9895833333333  0.202546296296296 17.5026041666667  0.607638888888889 17.1015625  C 1.01273148148148 16.7005208333333  1.50462962962963 16.5  2.08333333333333 16.5  L 2.77777777777778 16.5  L 2.77777777777778 9.625  C 2.77777777777778 6.97526041666666  3.72902199074074 4.70865885416666  5.63151041666667 2.8251953125  C 7.53399884259259 0.941731770833335  9.82349537037037 0  12.5 0  C 15.1765046296296 0  17.4660011574074 0.941731770833335  19.3684895833333 2.8251953125  C 21.2709780092593 4.70865885416666  22.2222222222222 6.97526041666666  22.2222222222222 9.625  C 22.2222222222222 9.99739583333333  22.0847800925926 10.3196614583333  21.8098958333333 10.591796875  C 21.5350115740741 10.8639322916667  21.2094907407407 11  20.8333333333333 11  L 19.4444444444444 11  C 19.068287037037 11  18.7427662037037 10.8639322916667  18.4678819444444 10.591796875  C 18.1929976851852 10.3196614583333  18.0555555555556 9.99739583333333  18.0555555555556 9.625  C 18.0555555555556 8.10677083333333  17.5130208333333 6.810546875  16.4279513888889 5.736328125  C 15.3428819444444 4.662109375  14.0335648148148 4.125  12.5 4.125  C 10.9664351851852 4.125  9.65711805555556 4.662109375  8.57204861111111 5.736328125  C 7.48697916666667 6.810546875  6.94444444444444 8.10677083333333  6.94444444444444 9.625  L 6.94444444444444 16  Z " fill-rule="nonzero" fill="#333333" stroke="none" transform="matrix(1 0 0 1 1302 383 )" />
  </g>
</svg>